<svg viewBox="0 0 846.66 846.66" xml:space="preserve" xmlns="http://www.w3.org/2000/svg" shape-rendering="geometricPrecision" text-rendering="geometricPrecision" image-rendering="optimizeQuality" fill-rule="evenodd" clip-rule="evenodd"><path d="M30.63 77.46h785.4c11.42 0 20.67 9.25 20.67 20.66v650.42c0 11.41-9.25 20.66-20.67 20.66H30.63c-11.41 0-20.67-9.25-20.67-20.66V98.12c0-11.41 9.26-20.66 20.67-20.66zm118.1 77.57c20.62 0 37.33 16.71 37.33 37.32 0 20.62-16.71 37.33-37.33 37.33-20.61 0-37.32-16.71-37.32-37.33 0-20.61 16.71-37.32 37.32-37.32zm129.37 0c20.62 0 37.33 16.71 37.33 37.32 0 20.62-16.71 37.33-37.33 37.33-20.61 0-37.33-16.71-37.33-37.33 0-20.61 16.72-37.32 37.33-37.32zM149.25 409.22c-27.17 0-27.17-41.32 0-41.32h284.31c27.17 0 27.17 41.32 0 41.32H149.25zm0 227.03c-27.17 0-27.17-41.32 0-41.32h284.31c27.17 0 27.17 41.32 0 41.32H149.25zm0-113.51c-27.17 0-27.17-41.33 0-41.33h284.31c27.17 0 27.17 41.33 0 41.33H149.25zm397.82-163.03h151.36c11.41 0 20.66 9.26 20.66 20.67v151.35c0 11.41-9.25 20.66-20.66 20.66H547.07c-11.41 0-20.66-9.25-20.66-20.66V380.38c0-11.41 9.25-20.67 20.66-20.67zm130.69 41.33H567.74v110.03h110.02V401.04zM51.29 265.92h444.63l55.16-62.52c4.07-4.59 9.73-6.94 15.42-6.94l228.87-.08v-77.59H51.29v147.13zm744.08-28.21H575.72l-53.96 61.15c-3.76 5.09-9.8 8.39-16.62 8.39H51.29v420.62h744.08V237.71z" fill="#ffffff" fill-rule="nonzero" class="fill-000000"></path></svg>