<svg viewBox="0 0 846.66 846.66" xml:space="preserve" xmlns="http://www.w3.org/2000/svg" shape-rendering="geometricPrecision" text-rendering="geometricPrecision" image-rendering="optimizeQuality" fill-rule="evenodd" clip-rule="evenodd"><path d="M91.01 713.2H30.9c-11.41 0-20.66-9.26-20.66-20.67V69.84c0-11.41 9.25-20.66 20.66-20.66h704.09c11.41 0 20.66 9.25 20.66 20.66v63.62h60.11c11.41 0 20.66 9.26 20.66 20.67v622.69c0 11.41-9.25 20.66-20.66 20.66H111.67c-11.41 0-20.66-9.25-20.66-20.66V713.2zm140.48-464.29c-27.17 0-27.17-41.32 0-41.32H346.7c27.18 0 27.18 41.32 0 41.32H231.49zm312.39 188.88c-27.18 0-27.18-41.33 0-41.33h150.65c27.18 0 27.18 41.33 0 41.33H543.88zm0 204.92c-27.18 0-27.18-41.32 0-41.32h150.65c27.18 0 27.18 41.32 0 41.32H543.88zm0-102.46c-27.18 0-27.18-41.33 0-41.33h150.65c27.18 0 27.18 41.33 0 41.33H543.88zM202.7 377.07h243.7c11.41 0 20.66 9.26 20.66 20.67v243.7c0 11.41-9.25 20.66-20.66 20.66H202.7c-11.41 0-20.67-9.25-20.67-20.66v-243.7c0-11.41 9.26-20.67 20.67-20.67zm223.04 41.33H223.36v202.38h202.38V418.4zm-293.4-119.97h360.7l25.09-44.82c3.78-6.74 10.78-10.54 18-10.54l258.96-.03v-68.25H132.34v123.64zm662.75-14.07H548.21l-24.53 43.81c-3.37 6.86-10.41 11.58-18.57 11.58H132.34v416.4h662.75V284.36zm-80.77-150.9V90.51H51.57v581.36h39.44V154.13c0-11.41 9.25-20.67 20.66-20.67h602.65z" fill="#ffffff" fill-rule="nonzero" class="fill-000000"></path></svg>